<svg xmlns="http://www.w3.org/2000/svg" viewBox="0 0 512 512">
  <!-- Background: warm off-white that matches the brand palette -->
  <rect width="512" height="512" rx="96" fill="#f8f7f6"/>
  <!-- Subtle gold radial accent -->
  <defs>
    <radialGradient id="glow" cx="50%" cy="0%" r="80%">
      <stop offset="0%" stop-color="#f2b056" stop-opacity="0.18"/>
      <stop offset="100%" stop-color="#f2b056" stop-opacity="0"/>
    </radialGradient>
  </defs>
  <rect width="512" height="512" rx="96" fill="url(#glow)"/>

  <!-- Brand mark (scaled & translated to fit safe area) -->
  <g transform="translate(123, 96) scale(2.2)">
    <!-- Orange hexagon -->
    <path
      d="M 123 35.7 L 62.1 0.5 L 0 36.4 L 0.3 107.3 L 62.1 143.9 L 123 107.9 Z"
      fill="#f2b056"
    />
    <!-- Gray abstract shape (rings + arch) -->
    <g fill="#504d4d">
      <path d="M 62.0 5.6
               C 3.5 39.4 0.0 56.4 0.0 56.4
               L 31.2 56.4
               C 31.2 42.8 42.6 31.4 56.2 31.4
               C 69.8 31.4 81.2 42.8 81.2 56.4
               L 112.4 56.4
               C 112.4 25.8 86.8 0.2 56.2 0.2
               C 60.0 0.2 61.0 5.0 62.0 5.6 Z"/>
      <circle cx="61.5" cy="118.7" r="8.6"/>
      <path d="M 4.4 84.6
               C 4.4 84.6 0.2 76.7 4.7 71.9
               L 32.1 56.0
               L 32.2 110.0
               L 0.0 91.9
               C -2.0 87.3 0.3 84.1 4.4 84.6 Z"/>
      <path d="M 92.4 109.3
               L 120.0 91.7
               C 124.5 87.3 120.3 79.4 115.9 79.9
               L 81.6 99.3
               L 81.6 56.0
               L 112.8 56.0
               C 112.8 56.0 109.8 71.5 92.4 84.7
               L 92.4 109.3 Z"/>
    </g>
  </g>
</svg>