<svg xmlns="http://www.w3.org/2000/svg" xmlns:xlink="http://www.w3.org/1999/xlink" width="500" zoomAndPan="magnify" viewBox="0 0 375 162.749997" height="217" preserveAspectRatio="xMidYMid meet" version="1.0"><defs><clipPath id="540da71a49"><path d="M 0.289062 0 L 374.710938 0 L 374.710938 156 L 0.289062 156 Z M 0.289062 0 " clip-rule="nonzero"/></clipPath><clipPath id="d1a8ef4e39"><path d="M 96 145 L 114 145 L 114 162.5 L 96 162.5 Z M 96 145 " clip-rule="nonzero"/></clipPath><clipPath id="7b3247ad52"><path d="M 47.007812 53.117188 L 159.554688 53.117188 L 159.554688 109.28125 L 47.007812 109.28125 Z M 47.007812 53.117188 " clip-rule="nonzero"/></clipPath><clipPath id="441692c3f5"><path d="M 159.554688 109.28125 C 159.554688 78.691406 133.980469 53.117188 103.390625 53.117188 C 72.796875 53.117188 47.226562 78.691406 47.226562 109.28125 L 78.410156 109.28125 C 78.410156 95.675781 89.785156 84.304688 103.390625 84.304688 C 116.996094 84.304688 128.367188 95.675781 128.367188 109.28125 Z M 159.554688 109.28125 " clip-rule="nonzero"/></clipPath><clipPath id="72b5842f3e"><path d="M 0.015625 0.117188 L 112.554688 0.117188 L 112.554688 56.28125 L 0.015625 56.28125 Z M 0.015625 0.117188 " clip-rule="nonzero"/></clipPath><clipPath id="c7b5890980"><path d="M 112.554688 56.28125 C 112.554688 25.691406 86.980469 0.117188 56.390625 0.117188 C 25.796875 0.117188 0.226562 25.691406 0.226562 56.28125 L 31.410156 56.28125 C 31.410156 42.675781 42.785156 31.304688 56.390625 31.304688 C 69.996094 31.304688 81.367188 42.675781 81.367188 56.28125 Z M 112.554688 56.28125 " clip-rule="nonzero"/></clipPath><clipPath id="8d3adf1699"><rect x="0" width="113" y="0" height="57"/></clipPath></defs><path fill="#f2b056" d="M 166.070312 51.824219 L 105.179688 16.582031 L 43.066406 52.441406 L 43.40625 123.335938 L 105.179688 159.949219 L 166.070312 123.957031 Z M 166.070312 51.824219 " fill-opacity="1" fill-rule="evenodd"/><g clip-path="url(#540da71a49)"><path fill="#838383" d="M 104.703125 21.394531 L 46.199219 55.207031 L 46.457031 122.054688 L 80.761719 142.277344 C 86.8125 148.332031 80.953125 157.347656 72.910156 154.902344 L 39.121094 135.453125 C 33.585938 136.222656 15.757812 149.554688 8.871094 151.488281 C 1.339844 152.519531 -2.652344 142.535156 3.722656 138.09375 L 31.140625 122.25 L 31.265625 55.398438 L 2.433594 37.945312 C -2.070312 33.117188 2.113281 25.257812 8.546875 25.710938 L 39.121094 42.003906 L 99.105469 7.226562 C 103.03125 5.292969 104.058594 4.714844 108.179688 6.515625 L 170.800781 42.519531 L 231.621094 7.417969 C 236.449219 5.292969 237.480469 6.390625 241.855469 8.515625 L 301.066406 42.710938 L 330.546875 26.226562 C 327.714844 6.390625 350.109375 -7.972656 366.136719 4.90625 C 386.472656 21.203125 366.136719 54.109375 341.164062 40.84375 L 337.558594 38.910156 C 327.96875 44.257812 318.445312 50.828125 308.726562 55.785156 C 305.25 57.589844 302.226562 60.164062 298.105469 57.976562 L 235.675781 22.359375 L 176.585938 54.621094 L 176.722656 129.140625 C 176.464844 132.296875 177.109375 131.394531 174.148438 133.261719 C 163.914062 139.507812 147.179688 148.589844 136.304688 154.644531 C 129.675781 158.507812 120.214844 148.203125 130.125 141.699219 C 134.117188 139.121094 145.058594 132.941406 162.304688 122.636719 L 162.304688 54.5625 M 352.363281 15.082031 C 343.546875 15.46875 344.0625 29.378906 352.8125 28.992188 C 361.761719 28.542969 360.859375 14.695312 352.363281 15.082031 Z M 352.363281 15.082031 " fill-opacity="1" fill-rule="nonzero"/></g><g clip-path="url(#d1a8ef4e39)"><path fill="#838383" d="M 113.328125 153.871094 C 113.328125 154.4375 113.273438 155 113.160156 155.554688 C 113.050781 156.109375 112.886719 156.648438 112.671875 157.171875 C 112.453125 157.695312 112.1875 158.195312 111.875 158.664062 C 111.558594 159.136719 111.203125 159.570312 110.800781 159.972656 C 110.402344 160.375 109.964844 160.730469 109.496094 161.046875 C 109.023438 161.359375 108.527344 161.625 108.003906 161.84375 C 107.480469 162.058594 106.941406 162.222656 106.386719 162.335938 C 105.832031 162.445312 105.269531 162.5 104.703125 162.5 C 104.136719 162.5 103.574219 162.445312 103.019531 162.335938 C 102.464844 162.222656 101.925781 162.058594 101.402344 161.84375 C 100.878906 161.625 100.382812 161.359375 99.910156 161.046875 C 99.441406 160.730469 99.003906 160.375 98.605469 159.972656 C 98.203125 159.570312 97.847656 159.136719 97.53125 158.664062 C 97.21875 158.195312 96.953125 157.695312 96.734375 157.171875 C 96.519531 156.648438 96.355469 156.109375 96.246094 155.554688 C 96.132812 155 96.078125 154.4375 96.078125 153.871094 C 96.078125 153.304688 96.132812 152.742188 96.246094 152.1875 C 96.355469 151.632812 96.519531 151.089844 96.734375 150.566406 C 96.953125 150.042969 97.21875 149.546875 97.53125 149.074219 C 97.847656 148.605469 98.203125 148.167969 98.605469 147.769531 C 99.003906 147.367188 99.441406 147.007812 99.910156 146.695312 C 100.382812 146.378906 100.878906 146.113281 101.402344 145.898438 C 101.925781 145.679688 102.464844 145.515625 103.019531 145.40625 C 103.574219 145.296875 104.136719 145.242188 104.703125 145.242188 C 105.269531 145.242188 105.832031 145.296875 106.386719 145.40625 C 106.941406 145.515625 107.480469 145.679688 108.003906 145.898438 C 108.527344 146.113281 109.023438 146.378906 109.496094 146.695312 C 109.964844 147.007812 110.402344 147.367188 110.800781 147.769531 C 111.203125 148.167969 111.558594 148.605469 111.875 149.074219 C 112.1875 149.546875 112.453125 150.042969 112.671875 150.566406 C 112.886719 151.089844 113.050781 151.632812 113.160156 152.1875 C 113.273438 152.742188 113.328125 153.304688 113.328125 153.871094 Z M 113.328125 153.871094 " fill-opacity="1" fill-rule="nonzero"/></g><g clip-path="url(#7b3247ad52)"><g clip-path="url(#441692c3f5)"><g transform="matrix(1, 0, 0, 1, 47, 53)"><g clip-path="url(#8d3adf1699)"><g clip-path="url(#72b5842f3e)"><g clip-path="url(#c7b5890980)"><path fill="#f2b056" d="M 0.226562 0.117188 L 112.554688 0.117188 L 112.554688 56.28125 L 0.226562 56.28125 Z M 0.226562 0.117188 " fill-opacity="1" fill-rule="nonzero"/></g></g></g></g></g></g></svg>