<svg xmlns="http://www.w3.org/2000/svg" xmlns:xlink="http://www.w3.org/1999/xlink" width="511" zoomAndPan="magnify" viewBox="0 0 383.25 93.749996" height="125" preserveAspectRatio="xMidYMid meet" version="1.0"><defs><g/><clipPath id="f780d4d347"><path d="M 0.136719 0 L 182.648438 0 L 182.648438 76 L 0.136719 76 Z M 0.136719 0 " clip-rule="nonzero"/></clipPath><clipPath id="d487e4c322"><path d="M 46 70 L 56 70 L 56 79.289062 L 46 79.289062 Z M 46 70 " clip-rule="nonzero"/></clipPath><clipPath id="5f4a07f053"><path d="M 80 13 L 99.796875 13 L 99.796875 43 L 80 43 Z M 80 13 " clip-rule="nonzero"/></clipPath><clipPath id="53855831dd"><rect x="0" width="100" y="0" height="52"/></clipPath><clipPath id="4a5c884135"><rect x="0" width="180" y="0" height="50"/></clipPath></defs><path fill="#f2b056" d="M 80.949219 25.285156 L 51.265625 8.089844 L 20.992188 25.589844 L 21.15625 60.179688 L 51.265625 78.042969 L 80.949219 60.480469 Z M 80.949219 25.285156 " fill-opacity="1" fill-rule="evenodd"/><g clip-path="url(#f780d4d347)"><path fill="#838383" d="M 51.035156 10.4375 L 22.519531 26.9375 L 22.644531 59.554688 L 39.367188 69.421875 C 42.3125 72.375 39.460938 76.773438 35.539062 75.582031 L 19.070312 66.089844 C 16.371094 66.46875 7.679688 72.972656 4.324219 73.914062 C 0.652344 74.417969 -1.292969 69.546875 1.8125 67.378906 L 15.179688 59.648438 L 15.242188 27.03125 L 1.1875 18.515625 C -1.007812 16.15625 1.03125 12.324219 4.167969 12.542969 L 19.070312 20.496094 L 48.304688 3.527344 C 50.21875 2.582031 50.722656 2.300781 52.730469 3.179688 L 83.253906 20.746094 L 112.898438 3.621094 C 115.25 2.582031 115.753906 3.117188 117.886719 4.152344 L 146.746094 20.839844 L 161.117188 12.796875 C 159.734375 3.117188 170.652344 -3.890625 178.464844 2.394531 C 188.375 10.34375 178.464844 26.402344 166.292969 19.929688 L 164.535156 18.984375 C 159.859375 21.59375 155.21875 24.800781 150.480469 27.21875 C 148.785156 28.097656 147.3125 29.355469 145.304688 28.289062 L 114.875 10.910156 L 86.074219 26.652344 L 86.140625 63.011719 C 86.015625 64.550781 86.328125 64.109375 84.882812 65.023438 C 79.894531 68.070312 71.738281 72.5 66.4375 75.453125 C 63.207031 77.339844 58.59375 72.3125 63.425781 69.136719 C 65.371094 67.882812 70.703125 64.863281 79.113281 59.835938 L 79.113281 26.621094 M 171.75 7.359375 C 167.453125 7.546875 167.703125 14.335938 171.96875 14.148438 C 176.332031 13.925781 175.890625 7.171875 171.75 7.359375 Z M 171.75 7.359375 " fill-opacity="1" fill-rule="nonzero"/></g><g clip-path="url(#d487e4c322)"><path fill="#838383" d="M 55.238281 75.078125 C 55.238281 75.355469 55.210938 75.628906 55.15625 75.898438 C 55.105469 76.171875 55.023438 76.433594 54.917969 76.6875 C 54.8125 76.945312 54.683594 77.1875 54.53125 77.417969 C 54.378906 77.648438 54.203125 77.859375 54.007812 78.054688 C 53.8125 78.25 53.601562 78.425781 53.371094 78.578125 C 53.140625 78.734375 52.898438 78.863281 52.644531 78.96875 C 52.390625 79.074219 52.125 79.152344 51.855469 79.207031 C 51.585938 79.261719 51.3125 79.289062 51.035156 79.289062 C 50.757812 79.289062 50.484375 79.261719 50.214844 79.207031 C 49.945312 79.152344 49.679688 79.074219 49.425781 78.96875 C 49.171875 78.863281 48.929688 78.734375 48.699219 78.578125 C 48.46875 78.425781 48.257812 78.25 48.0625 78.054688 C 47.867188 77.859375 47.691406 77.648438 47.539062 77.417969 C 47.386719 77.1875 47.257812 76.945312 47.152344 76.6875 C 47.046875 76.433594 46.964844 76.171875 46.914062 75.898438 C 46.859375 75.628906 46.832031 75.355469 46.832031 75.078125 C 46.832031 74.800781 46.859375 74.527344 46.914062 74.257812 C 46.964844 73.984375 47.046875 73.722656 47.152344 73.464844 C 47.257812 73.210938 47.386719 72.96875 47.539062 72.738281 C 47.691406 72.507812 47.867188 72.296875 48.0625 72.101562 C 48.257812 71.90625 48.46875 71.730469 48.699219 71.578125 C 48.929688 71.421875 49.171875 71.292969 49.425781 71.1875 C 49.679688 71.082031 49.945312 71 50.214844 70.949219 C 50.484375 70.894531 50.757812 70.867188 51.035156 70.867188 C 51.3125 70.867188 51.585938 70.894531 51.855469 70.949219 C 52.125 71 52.390625 71.082031 52.644531 71.1875 C 52.898438 71.292969 53.140625 71.421875 53.371094 71.578125 C 53.601562 71.730469 53.8125 71.90625 54.007812 72.101562 C 54.203125 72.296875 54.378906 72.507812 54.53125 72.738281 C 54.683594 72.96875 54.8125 73.210938 54.917969 73.464844 C 55.023438 73.722656 55.105469 73.984375 55.15625 74.257812 C 55.210938 74.527344 55.238281 74.800781 55.238281 75.078125 Z M 55.238281 75.078125 " fill-opacity="1" fill-rule="nonzero"/></g><g transform="matrix(1, 0, 0, 1, 268, 28)"><g clip-path="url(#53855831dd)"><g fill="#f2b056" fill-opacity="1"><g transform="translate(1.163947, 42.673526)"><g><path d="M 14.875 -28.828125 L 7.9375 -12.234375 C 7.738281 -11.796875 7.738281 -11.457031 7.9375 -11.21875 C 8.132812 -10.976562 8.425781 -10.859375 8.8125 -10.859375 L 25.359375 -10.859375 L 25.359375 -7.0625 L 21.8125 -6.4375 L 4.21875 -6.4375 C 3.4375 -6.4375 2.765625 -6.648438 2.203125 -7.078125 C 1.648438 -7.515625 1.28125 -8.070312 1.09375 -8.75 C 0.914062 -9.4375 0.984375 -10.128906 1.296875 -10.828125 L 8.859375 -28.828125 Z M 21.84375 -23.234375 L 21.84375 0 L 15.953125 0 L 15.953125 -18.640625 L 17 -23.234375 Z M 21.84375 -23.234375 "/></g></g></g><g fill="#f2b056" fill-opacity="1"><g transform="translate(27.736929, 42.673526)"><g><path d="M 16.671875 -28.828125 C 17.203125 -28.828125 17.664062 -28.671875 18.0625 -28.359375 C 18.46875 -28.054688 18.742188 -27.65625 18.890625 -27.15625 L 27.234375 0 L 20.71875 0 L 14.828125 -21.1875 C 14.722656 -21.65625 14.613281 -22.132812 14.5 -22.625 C 14.382812 -23.113281 14.285156 -23.582031 14.203125 -24.03125 L 13.078125 -24.03125 C 12.992188 -23.582031 12.898438 -23.113281 12.796875 -22.625 C 12.703125 -22.132812 12.585938 -21.65625 12.453125 -21.1875 L 6.5625 0 L 0 0 L 8.390625 -27.15625 C 8.535156 -27.65625 8.804688 -28.054688 9.203125 -28.359375 C 9.609375 -28.671875 10.078125 -28.828125 10.609375 -28.828125 Z M 21.09375 -12.40625 L 21.09375 -7.609375 L 6.140625 -7.609375 L 6.140625 -12.40625 Z M 21.09375 -12.40625 "/></g></g></g><g fill="#f2b056" fill-opacity="1"><g transform="translate(54.978411, 42.673526)"><g><path d="M 9.1875 -28.828125 L 9.1875 -7.265625 C 9.1875 -6.566406 9.378906 -6.035156 9.765625 -5.671875 C 10.160156 -5.316406 10.722656 -5.140625 11.453125 -5.140625 L 21.515625 -5.140625 L 21.8125 -0.328125 C 19.832031 -0.109375 17.765625 0.0195312 15.609375 0.0625 C 13.453125 0.101562 11.300781 0.125 9.15625 0.125 C 7.0625 0.125 5.476562 -0.4375 4.40625 -1.5625 C 3.332031 -2.695312 2.796875 -4.140625 2.796875 -5.890625 L 2.796875 -28.828125 Z M 9.1875 -28.828125 "/></g></g></g><g clip-path="url(#5f4a07f053)"><g fill="#f2b056" fill-opacity="1"><g transform="translate(77.331464, 42.673526)"><g><path d="M 9.1875 -28.828125 L 9.1875 -7.265625 C 9.1875 -6.566406 9.378906 -6.035156 9.765625 -5.671875 C 10.160156 -5.316406 10.722656 -5.140625 11.453125 -5.140625 L 21.515625 -5.140625 L 21.8125 -0.328125 C 19.832031 -0.109375 17.765625 0.0195312 15.609375 0.0625 C 13.453125 0.101562 11.300781 0.125 9.15625 0.125 C 7.0625 0.125 5.476562 -0.4375 4.40625 -1.5625 C 3.332031 -2.695312 2.796875 -4.140625 2.796875 -5.890625 L 2.796875 -28.828125 Z M 9.1875 -28.828125 "/></g></g></g></g></g></g><g transform="matrix(1, 0, 0, 1, 91, 29)"><g clip-path="url(#4a5c884135)"><g fill="#838383" fill-opacity="1"><g transform="translate(0.417258, 40.168654)"><g><path d="M 13.1875 -28.453125 C 15.4375 -28.453125 17.21875 -28.191406 18.53125 -27.671875 C 19.851562 -27.160156 20.796875 -26.273438 21.359375 -25.015625 C 21.929688 -23.753906 22.21875 -21.96875 22.21875 -19.65625 C 22.21875 -17.351562 21.941406 -15.5625 21.390625 -14.28125 C 20.835938 -13.007812 19.925781 -12.125 18.65625 -11.625 C 17.394531 -11.125 15.707031 -10.875 13.59375 -10.875 C 12.457031 -10.875 11.363281 -10.898438 10.3125 -10.953125 C 9.269531 -11.003906 8.3125 -11.078125 7.4375 -11.171875 C 6.570312 -11.265625 5.832031 -11.363281 5.21875 -11.46875 C 4.613281 -11.582031 4.191406 -11.679688 3.953125 -11.765625 L 4.0625 -13.96875 C 5.507812 -13.96875 7.003906 -13.96875 8.546875 -13.96875 C 10.097656 -13.96875 11.628906 -13.96875 13.140625 -13.96875 C 14.503906 -13.988281 15.582031 -14.15625 16.375 -14.46875 C 17.175781 -14.78125 17.742188 -15.347656 18.078125 -16.171875 C 18.421875 -17.003906 18.59375 -18.164062 18.59375 -19.65625 C 18.59375 -21.175781 18.421875 -22.34375 18.078125 -23.15625 C 17.742188 -23.96875 17.175781 -24.535156 16.375 -24.859375 C 15.582031 -25.191406 14.503906 -25.359375 13.140625 -25.359375 C 10.921875 -25.359375 9.003906 -25.34375 7.390625 -25.3125 C 5.773438 -25.289062 4.679688 -25.25 4.109375 -25.1875 L 3.546875 -28.078125 C 4.578125 -28.191406 5.539062 -28.273438 6.4375 -28.328125 C 7.332031 -28.378906 8.304688 -28.410156 9.359375 -28.421875 C 10.421875 -28.441406 11.695312 -28.453125 13.1875 -28.453125 Z M 7.125 -28.078125 L 7.125 0 L 3.546875 0 L 3.546875 -28.078125 Z M 7.125 -28.078125 "/></g></g></g><g fill="#838383" fill-opacity="1"><g transform="translate(24.425711, 40.168654)"><g><path d="M 8.703125 -28.125 C 10.066406 -28.125 11.429688 -28.125 12.796875 -28.125 C 14.171875 -28.125 15.53125 -28.101562 16.875 -28.0625 C 18.21875 -28.019531 19.515625 -27.957031 20.765625 -27.875 L 20.59375 -25.078125 L 9.328125 -25.078125 C 8.484375 -25.078125 7.863281 -24.863281 7.46875 -24.4375 C 7.070312 -24.019531 6.875 -23.335938 6.875 -22.390625 L 6.875 -5.703125 C 6.875 -4.753906 7.070312 -4.0625 7.46875 -3.625 C 7.863281 -3.1875 8.484375 -2.96875 9.328125 -2.96875 L 20.59375 -2.96875 L 20.765625 -0.203125 C 19.515625 -0.117188 18.21875 -0.0625 16.875 -0.03125 C 15.53125 -0.0078125 14.171875 0.00390625 12.796875 0.015625 C 11.429688 0.0351562 10.066406 0.046875 8.703125 0.046875 C 7.054688 0.046875 5.75 -0.394531 4.78125 -1.28125 C 3.820312 -2.164062 3.328125 -3.351562 3.296875 -4.84375 L 3.296875 -23.234375 C 3.328125 -24.753906 3.820312 -25.945312 4.78125 -26.8125 C 5.75 -27.6875 7.054688 -28.125 8.703125 -28.125 Z M 4.03125 -16.28125 L 19.015625 -16.28125 L 19.015625 -13.390625 L 4.03125 -13.390625 Z M 4.03125 -16.28125 "/></g></g></g><g fill="#838383" fill-opacity="1"><g transform="translate(47.213398, 40.168654)"><g><path d="M 13.1875 -28.453125 C 15.4375 -28.453125 17.21875 -28.191406 18.53125 -27.671875 C 19.851562 -27.160156 20.796875 -26.273438 21.359375 -25.015625 C 21.929688 -23.753906 22.21875 -21.96875 22.21875 -19.65625 C 22.21875 -17.351562 21.941406 -15.5625 21.390625 -14.28125 C 20.835938 -13.007812 19.925781 -12.125 18.65625 -11.625 C 17.394531 -11.125 15.707031 -10.875 13.59375 -10.875 C 12.457031 -10.875 11.363281 -10.898438 10.3125 -10.953125 C 9.269531 -11.003906 8.3125 -11.078125 7.4375 -11.171875 C 6.570312 -11.265625 5.832031 -11.363281 5.21875 -11.46875 C 4.613281 -11.582031 4.191406 -11.679688 3.953125 -11.765625 L 4.0625 -13.96875 C 5.507812 -13.96875 7.003906 -13.96875 8.546875 -13.96875 C 10.097656 -13.96875 11.628906 -13.96875 13.140625 -13.96875 C 14.503906 -13.988281 15.582031 -14.15625 16.375 -14.46875 C 17.175781 -14.78125 17.742188 -15.347656 18.078125 -16.171875 C 18.421875 -17.003906 18.59375 -18.164062 18.59375 -19.65625 C 18.59375 -21.175781 18.421875 -22.34375 18.078125 -23.15625 C 17.742188 -23.96875 17.175781 -24.535156 16.375 -24.859375 C 15.582031 -25.191406 14.503906 -25.359375 13.140625 -25.359375 C 10.921875 -25.359375 9.003906 -25.34375 7.390625 -25.3125 C 5.773438 -25.289062 4.679688 -25.25 4.109375 -25.1875 L 3.546875 -28.078125 C 4.578125 -28.191406 5.539062 -28.273438 6.4375 -28.328125 C 7.332031 -28.378906 8.304688 -28.410156 9.359375 -28.421875 C 10.421875 -28.441406 11.695312 -28.453125 13.1875 -28.453125 Z M 7.125 -28.078125 L 7.125 0 L 3.546875 0 L 3.546875 -28.078125 Z M 7.125 -28.078125 "/></g></g></g><g fill="#838383" fill-opacity="1"><g transform="translate(71.221852, 40.168654)"><g><path d="M 13.59375 -28.078125 L 13.59375 0 L 10.015625 0 L 10.015625 -28.078125 Z M 22.671875 -28.078125 L 22.671875 -24.90625 L 0.984375 -24.90625 L 0.984375 -28.078125 Z M 22.671875 -28.078125 "/></g></g></g><g fill="#838383" fill-opacity="1"><g transform="translate(94.864071, 40.168654)"><g><path d="M 7.125 -28.078125 L 7.125 0 L 3.546875 0 L 3.546875 -28.078125 Z M 7.125 -28.078125 "/></g></g></g><g fill="#838383" fill-opacity="1"><g transform="translate(105.525454, 40.168654)"><g><path d="M 13.546875 -28.453125 C 15.554688 -28.453125 17.257812 -28.207031 18.65625 -27.71875 C 20.0625 -27.226562 21.191406 -26.425781 22.046875 -25.3125 C 22.898438 -24.207031 23.519531 -22.726562 23.90625 -20.875 C 24.300781 -19.03125 24.5 -16.753906 24.5 -14.046875 C 24.5 -11.328125 24.300781 -9.046875 23.90625 -7.203125 C 23.519531 -5.359375 22.898438 -3.878906 22.046875 -2.765625 C 21.191406 -1.648438 20.0625 -0.847656 18.65625 -0.359375 C 17.257812 0.117188 15.554688 0.359375 13.546875 0.359375 C 11.628906 0.359375 9.847656 0.320312 8.203125 0.25 C 6.554688 0.1875 5.003906 0.101562 3.546875 0 L 5.09375 -2.9375 C 6.226562 -2.90625 7.492188 -2.867188 8.890625 -2.828125 C 10.285156 -2.785156 11.835938 -2.765625 13.546875 -2.765625 C 15.335938 -2.765625 16.765625 -3.109375 17.828125 -3.796875 C 18.890625 -4.492188 19.644531 -5.660156 20.09375 -7.296875 C 20.539062 -8.941406 20.765625 -11.191406 20.765625 -14.046875 C 20.765625 -16.890625 20.539062 -19.128906 20.09375 -20.765625 C 19.644531 -22.410156 18.890625 -23.585938 17.828125 -24.296875 C 16.765625 -25.003906 15.335938 -25.359375 13.546875 -25.359375 C 11.867188 -25.359375 10.359375 -25.34375 9.015625 -25.3125 C 7.671875 -25.289062 6.363281 -25.265625 5.09375 -25.234375 L 3.546875 -28.078125 C 5.003906 -28.191406 6.554688 -28.28125 8.203125 -28.34375 C 9.847656 -28.414062 11.628906 -28.453125 13.546875 -28.453125 Z M 7.125 -28.078125 L 7.125 0 L 3.546875 0 L 3.546875 -28.078125 Z M 7.125 -28.078125 "/></g></g></g><g fill="#838383" fill-opacity="1"><g transform="translate(132.54513, 40.168654)"><g><path d="M 8.703125 -28.125 C 10.066406 -28.125 11.429688 -28.125 12.796875 -28.125 C 14.171875 -28.125 15.53125 -28.101562 16.875 -28.0625 C 18.21875 -28.019531 19.515625 -27.957031 20.765625 -27.875 L 20.59375 -25.078125 L 9.328125 -25.078125 C 8.484375 -25.078125 7.863281 -24.863281 7.46875 -24.4375 C 7.070312 -24.019531 6.875 -23.335938 6.875 -22.390625 L 6.875 -5.703125 C 6.875 -4.753906 7.070312 -4.0625 7.46875 -3.625 C 7.863281 -3.1875 8.484375 -2.96875 9.328125 -2.96875 L 20.59375 -2.96875 L 20.765625 -0.203125 C 19.515625 -0.117188 18.21875 -0.0625 16.875 -0.03125 C 15.53125 -0.0078125 14.171875 0.00390625 12.796875 0.015625 C 11.429688 0.0351562 10.066406 0.046875 8.703125 0.046875 C 7.054688 0.046875 5.75 -0.394531 4.78125 -1.28125 C 3.820312 -2.164062 3.328125 -3.351562 3.296875 -4.84375 L 3.296875 -23.234375 C 3.328125 -24.753906 3.820312 -25.945312 4.78125 -26.8125 C 5.75 -27.6875 7.054688 -28.125 8.703125 -28.125 Z M 4.03125 -16.28125 L 19.015625 -16.28125 L 19.015625 -13.390625 L 4.03125 -13.390625 Z M 4.03125 -16.28125 "/></g></g></g><g fill="#838383" fill-opacity="1"><g transform="translate(155.332818, 40.168654)"><g><path d="M 11.359375 -28.578125 C 12.679688 -28.546875 14.046875 -28.472656 15.453125 -28.359375 C 16.867188 -28.253906 18.285156 -28.054688 19.703125 -27.765625 L 19.453125 -25.15625 C 18.285156 -25.207031 16.992188 -25.253906 15.578125 -25.296875 C 14.171875 -25.335938 12.816406 -25.359375 11.515625 -25.359375 C 10.515625 -25.359375 9.65625 -25.320312 8.9375 -25.25 C 8.21875 -25.1875 7.625 -25.023438 7.15625 -24.765625 C 6.695312 -24.503906 6.363281 -24.082031 6.15625 -23.5 C 5.957031 -22.914062 5.859375 -22.109375 5.859375 -21.078125 C 5.859375 -19.535156 6.132812 -18.457031 6.6875 -17.84375 C 7.25 -17.238281 8.15625 -16.785156 9.40625 -16.484375 L 15.09375 -15.0625 C 17.269531 -14.539062 18.757812 -13.632812 19.5625 -12.34375 C 20.363281 -11.0625 20.765625 -9.332031 20.765625 -7.15625 C 20.765625 -5.53125 20.578125 -4.210938 20.203125 -3.203125 C 19.835938 -2.203125 19.273438 -1.4375 18.515625 -0.90625 C 17.753906 -0.382812 16.773438 -0.0234375 15.578125 0.171875 C 14.390625 0.378906 12.984375 0.484375 11.359375 0.484375 C 10.429688 0.484375 9.226562 0.441406 7.75 0.359375 C 6.269531 0.285156 4.566406 0.0703125 2.640625 -0.28125 L 2.890625 -2.9375 C 4.492188 -2.875 5.78125 -2.820312 6.75 -2.78125 C 7.726562 -2.75 8.570312 -2.734375 9.28125 -2.734375 C 9.988281 -2.734375 10.722656 -2.734375 11.484375 -2.734375 C 12.921875 -2.734375 14.050781 -2.835938 14.875 -3.046875 C 15.707031 -3.265625 16.289062 -3.695312 16.625 -4.34375 C 16.96875 -5 17.140625 -5.96875 17.140625 -7.25 C 17.140625 -8.332031 17.015625 -9.171875 16.765625 -9.765625 C 16.523438 -10.367188 16.140625 -10.820312 15.609375 -11.125 C 15.078125 -11.4375 14.40625 -11.691406 13.59375 -11.890625 L 7.78125 -13.34375 C 5.738281 -13.863281 4.300781 -14.757812 3.46875 -16.03125 C 2.644531 -17.3125 2.234375 -19.023438 2.234375 -21.171875 C 2.234375 -22.796875 2.414062 -24.101562 2.78125 -25.09375 C 3.15625 -26.082031 3.710938 -26.828125 4.453125 -27.328125 C 5.203125 -27.828125 6.144531 -28.160156 7.28125 -28.328125 C 8.425781 -28.492188 9.785156 -28.578125 11.359375 -28.578125 Z M 11.359375 -28.578125 "/></g></g></g></g></g></svg>